<?xml version="1.0" standalone="no"?>
<!DOCTYPE svg PUBLIC "-//W3C//DTD SVG 20010904//EN"
 "http://www.w3.org/TR/2001/REC-SVG-20010904/DTD/svg10.dtd">
<svg version="1.0" xmlns="http://www.w3.org/2000/svg"
 width="287.000000pt" height="287.000000pt" viewBox="0 0 287.000000 287.000000"
 preserveAspectRatio="xMidYMid meet">
<metadata>
Created by potrace 1.11, written by Peter Selinger 2001-2013
</metadata>
<g transform="translate(0.000000,287.000000) scale(0.100000,-0.100000)"
fill="#000000" stroke="none">
<path d="M1151 2506 c-16 -39 -98 -240 -181 -446 -275 -677 -307 -756 -324
-795 -8 -16 -29 -69 -47 -117 -25 -66 -39 -88 -52 -88 -27 0 -135 56 -193 100
-78 59 -173 186 -190 254 -5 23 -11 25 -81 28 -41 2 -76 2 -78 0 -7 -7 28
-101 61 -161 76 -138 184 -244 318 -311 43 -22 84 -40 92 -40 7 0 16 -5 19
-10 5 -9 -48 -148 -194 -505 -23 -54 -41 -102 -41 -105 0 -3 35 -5 77 -5 l76
0 94 230 c52 127 105 257 119 291 l25 60 177 -2 c97 -1 180 -2 183 -3 4 0 -45
-126 -107 -278 -63 -153 -114 -283 -114 -289 0 -6 27 -10 73 -8 89 2 87 2 87
14 0 9 66 174 200 500 164 399 230 566 230 579 0 18 -57 161 -70 174 -4 4 -17
-16 -29 -45 -12 -29 -26 -62 -31 -73 -5 -11 -46 -111 -91 -222 l-81 -203 -185
0 c-144 0 -184 3 -180 12 3 7 67 164 142 348 171 419 370 908 397 978 14 35
24 49 29 40 7 -12 135 -326 489 -1198 84 -206 201 -494 261 -640 l107 -265 76
-1 c42 0 76 3 76 8 0 7 -127 324 -165 413 -7 17 -27 64 -43 105 -17 41 -85
209 -151 373 -67 163 -175 431 -241 595 -66 163 -125 306 -130 317 -5 11 -43
103 -84 205 -41 102 -82 202 -91 223 l-15 37 -95 -1 -94 -1 -30 -72z"/>
<path d="M1521 2528 c11 -29 58 -145 104 -258 46 -113 118 -290 160 -395 42
-104 83 -203 90 -220 7 -16 40 -97 74 -180 108 -269 262 -649 277 -685 9 -19
57 -136 107 -260 l92 -225 75 0 c60 1 74 4 72 15 -3 13 -201 506 -352 875 -32
77 -165 403 -295 725 -130 322 -244 602 -253 623 l-16 37 -78 0 -78 0 21 -52z"/>
<path d="M1795 2558 c7 -22 164 -413 190 -473 13 -30 50 -121 385 -945 99
-245 217 -533 261 -640 l80 -196 69 1 c38 0 72 3 75 7 4 4 -23 80 -60 170 -36
90 -98 242 -137 338 -38 96 -78 193 -88 215 -9 22 -56 137 -104 255 -47 118
-185 456 -304 750 l-218 535 -78 3 c-77 3 -78 3 -71 -20z"/>
</g>
</svg>
